<svg x="-11" y="-8" width="1060.000000" height="29.000000">
    <rect x="5.333333" y="0.000000" width="210.666667" height="10.000000" fill="#d38d5f" stroke-width="0"/>
    <rect x="218.666667" y="0.000000" width="61.333333" height="10.000000" fill="#ffdd55" stroke-width="0"/>
    <rect x="280.000000" y="0.000000" width="37.333333" height="10.000000" fill="#ffdd55" stroke-width="0"/>
    <rect x="320.000000" y="0.000000" width="37.333333" height="10.000000" fill="#ffdd55" stroke-width="0"/>
    <rect x="357.333333" y="0.000000" width="34.666667" height="10.000000" fill="#ffdd55" stroke-width="0"/>
    <rect x="392.000000" y="0.000000" width="53.333333" height="10.000000" fill="#d38d5f" stroke-width="0"/>
    <rect x="445.333333" y="0.000000" width="32.000000" height="10.000000" fill="#ffdd55" stroke-width="0"/>
    <rect x="477.333333" y="0.000000" width="29.333333" height="10.000000" fill="#ffdd55" stroke-width="0"/>
    <rect x="506.666667" y="0.000000" width="29.333333" height="10.000000" fill="#ffdd55" stroke-width="0"/>
    <rect x="536.000000" y="0.000000" width="45.333333" height="10.000000" fill="#d38d5f" stroke-width="0"/>
    <rect x="581.333333" y="0.000000" width="34.666667" height="10.000000" fill="#ffdd55" stroke-width="0"/>
    <rect x="616.000000" y="0.000000" width="24.000000" height="10.000000" fill="#ffdd55" stroke-width="0"/>
    <rect x="640.000000" y="0.000000" width="34.666667" height="10.000000" fill="#d38d5f" stroke-width="0"/>
    <rect x="674.666667" y="0.000000" width="18.666667" height="10.000000" fill="#ffdd55" stroke-width="0"/>
    <rect x="693.333333" y="0.000000" width="29.333333" height="10.000000" fill="#d38d5f" stroke-width="0"/>
    <rect x="722.666667" y="0.000000" width="277.333333" height="10.000000" fill="#8dd35f" stroke-width="0"/>
<line x1="0" y1="20.200000" x2="1020.000000" y2="20.200000"                      style="stroke:rgb(0,0,0);stroke-width:1"/>
<text x="1010.000000" y="8.000000" style="font-size:6pt">Thread 0</text>
<text x="0" y="28.000000" style="font-size:6pt">Time (usec.)</text>
<line x1="100.000000" y1="19.200000" x2="100.000000" y2="21.200000"                      style="stroke:rgb(0,0,0);stroke-width:0.5"/>
<text x="100.000000" y="27.200000" style="font-size:6pt"> 38 </text>
<line x1="200.000000" y1="19.200000" x2="200.000000" y2="21.200000"                      style="stroke:rgb(0,0,0);stroke-width:0.5"/>
<text x="200.000000" y="27.200000" style="font-size:6pt"> 75 </text>
<line x1="300.000000" y1="19.200000" x2="300.000000" y2="21.200000"                      style="stroke:rgb(0,0,0);stroke-width:0.5"/>
<text x="300.000000" y="27.200000" style="font-size:6pt"> 112 </text>
<line x1="400.000000" y1="19.200000" x2="400.000000" y2="21.200000"                      style="stroke:rgb(0,0,0);stroke-width:0.5"/>
<text x="400.000000" y="27.200000" style="font-size:6pt"> 150 </text>
<line x1="500.000000" y1="19.200000" x2="500.000000" y2="21.200000"                      style="stroke:rgb(0,0,0);stroke-width:0.5"/>
<text x="500.000000" y="27.200000" style="font-size:6pt"> 188 </text>
<line x1="600.000000" y1="19.200000" x2="600.000000" y2="21.200000"                      style="stroke:rgb(0,0,0);stroke-width:0.5"/>
<text x="600.000000" y="27.200000" style="font-size:6pt"> 225 </text>
<line x1="700.000000" y1="19.200000" x2="700.000000" y2="21.200000"                      style="stroke:rgb(0,0,0);stroke-width:0.5"/>
<text x="700.000000" y="27.200000" style="font-size:6pt"> 262 </text>
<line x1="800.000000" y1="19.200000" x2="800.000000" y2="21.200000"                      style="stroke:rgb(0,0,0);stroke-width:0.5"/>
<text x="800.000000" y="27.200000" style="font-size:6pt"> 300 </text>
<line x1="900.000000" y1="19.200000" x2="900.000000" y2="21.200000"                      style="stroke:rgb(0,0,0);stroke-width:0.5"/>
<text x="900.000000" y="27.200000" style="font-size:6pt"> 338 </text>
<line x1="1000.000000" y1="19.200000" x2="1000.000000" y2="21.200000"                      style="stroke:rgb(0,0,0);stroke-width:0.5"/>
<text x="1000.000000" y="27.200000" style="font-size:6pt"> 375 </text>
</svg>
