<svg x="-11" y="-8" width="1060.000000" height="60.500000">
    <rect x="397.637795" y="0.000000" width="82.677165" height="10.000000" fill="#ffdd55" stroke-width="0"/>
    <rect x="944.881890" y="0.000000" width="55.118110" height="10.000000" fill="#8dd35f" stroke-width="0"/>
    <rect x="110.236220" y="10.000000" width="279.527559" height="10.000000" fill="#d38d5f" stroke-width="0"/>
    <rect x="397.637795" y="10.000000" width="74.803150" height="10.000000" fill="#ffdd55" stroke-width="0"/>
    <rect x="476.377953" y="10.000000" width="74.803150" height="10.000000" fill="#d38d5f" stroke-width="0"/>
    <rect x="555.118110" y="10.000000" width="59.055118" height="10.000000" fill="#ffdd55" stroke-width="0"/>
    <rect x="397.637795" y="20.000000" width="204.724409" height="10.000000" fill="#ffdd55" stroke-width="0"/>
    <rect x="606.299213" y="20.000000" width="47.244094" height="10.000000" fill="#ffdd55" stroke-width="0"/>
    <rect x="657.480315" y="20.000000" width="98.425197" height="10.000000" fill="#d38d5f" stroke-width="0"/>
    <rect x="759.842520" y="20.000000" width="47.244094" height="10.000000" fill="#ffdd55" stroke-width="0"/>
    <rect x="807.086614" y="20.000000" width="55.118110" height="10.000000" fill="#d38d5f" stroke-width="0"/>
    <rect x="862.204724" y="20.000000" width="35.433071" height="10.000000" fill="#ffdd55" stroke-width="0"/>
    <rect x="897.637795" y="20.000000" width="43.307087" height="10.000000" fill="#d38d5f" stroke-width="0"/>
    <rect x="397.637795" y="30.000000" width="161.417323" height="10.000000" fill="#ffdd55" stroke-width="0"/>
    <rect x="562.992126" y="30.000000" width="51.181102" height="10.000000" fill="#ffdd55" stroke-width="0"/>
    <rect x="755.905512" y="30.000000" width="51.181102" height="10.000000" fill="#ffdd55" stroke-width="0"/>
<line x1="0" y1="50.500000" x2="1020.000000" y2="50.500000"                      style="stroke:rgb(0,0,0);stroke-width:1"/>
<text x="1010.000000" y="8.000000" style="font-size:6pt">Thread 0</text>
<text x="1010.000000" y="18.000000" style="font-size:6pt">Thread 1</text>
<text x="1010.000000" y="28.000000" style="font-size:6pt">Thread 2</text>
<text x="1010.000000" y="38.000000" style="font-size:6pt">Thread 3</text>
<text x="0" y="59.500000" style="font-size:6pt">Time (usec.)</text>
<line x1="100.000000" y1="49.500000" x2="100.000000" y2="51.500000"                      style="stroke:rgb(0,0,0);stroke-width:0.5"/>
<text x="100.000000" y="57.500000" style="font-size:6pt"> 25 </text>
<line x1="200.000000" y1="49.500000" x2="200.000000" y2="51.500000"                      style="stroke:rgb(0,0,0);stroke-width:0.5"/>
<text x="200.000000" y="57.500000" style="font-size:6pt"> 51 </text>
<line x1="300.000000" y1="49.500000" x2="300.000000" y2="51.500000"                      style="stroke:rgb(0,0,0);stroke-width:0.5"/>
<text x="300.000000" y="57.500000" style="font-size:6pt"> 76 </text>
<line x1="400.000000" y1="49.500000" x2="400.000000" y2="51.500000"                      style="stroke:rgb(0,0,0);stroke-width:0.5"/>
<text x="400.000000" y="57.500000" style="font-size:6pt"> 102 </text>
<line x1="500.000000" y1="49.500000" x2="500.000000" y2="51.500000"                      style="stroke:rgb(0,0,0);stroke-width:0.5"/>
<text x="500.000000" y="57.500000" style="font-size:6pt"> 127 </text>
<line x1="600.000000" y1="49.500000" x2="600.000000" y2="51.500000"                      style="stroke:rgb(0,0,0);stroke-width:0.5"/>
<text x="600.000000" y="57.500000" style="font-size:6pt"> 152 </text>
<line x1="700.000000" y1="49.500000" x2="700.000000" y2="51.500000"                      style="stroke:rgb(0,0,0);stroke-width:0.5"/>
<text x="700.000000" y="57.500000" style="font-size:6pt"> 178 </text>
<line x1="800.000000" y1="49.500000" x2="800.000000" y2="51.500000"                      style="stroke:rgb(0,0,0);stroke-width:0.5"/>
<text x="800.000000" y="57.500000" style="font-size:6pt"> 203 </text>
<line x1="900.000000" y1="49.500000" x2="900.000000" y2="51.500000"                      style="stroke:rgb(0,0,0);stroke-width:0.5"/>
<text x="900.000000" y="57.500000" style="font-size:6pt"> 229 </text>
<line x1="1000.000000" y1="49.500000" x2="1000.000000" y2="51.500000"                      style="stroke:rgb(0,0,0);stroke-width:0.5"/>
<text x="1000.000000" y="57.500000" style="font-size:6pt"> 254 </text>
</svg>
